# xmcd
#
# Track frame offsets: 
#        150
#        16540
#        47749
#        59355
#        75209
#        86710
#
# Disc length: 1444 seconds
#
# Revision: 0
# Processed by: cddbd v1.5.2PL0 Copyright (c) Steve Scherf et al.
# Submitted via: ExactAudioCopy v0.95a5
#
DISCID=3605a206
DTITLE=Joe Bonamassa - Christmas Album 2016
DYEAR=2016
DGENRE=Christmas Blues
TTITLE0=Bring Back My Cadillac
TTITLE1=Christmas Boogie (One Little Kiss)
TTITLE2=Christmas Date Blues
TTITLE3=Lonesome Christmas
TTITLE4=Santa Claus is Back in Town
TTITLE5=Merry Christmas Baby
EXTD=
EXTT0=
EXTT1=
EXTT2=
EXTT3=
EXTT4=
EXTT5=
PLAYORDER=
